<?xml version="1.0" standalone="no"?>
<!DOCTYPE svg PUBLIC "-//W3C//DTD SVG 20010904//EN"
 "http://www.w3.org/TR/2001/REC-SVG-20010904/DTD/svg10.dtd">
<svg version="1.0" xmlns="http://www.w3.org/2000/svg"
 width="512.000000pt" height="512.000000pt" viewBox="0 0 512.000000 512.000000"
 preserveAspectRatio="xMidYMid meet">
<metadata>
Created by potrace 1.11, written by Peter Selinger 2001-2013
</metadata>
<g transform="translate(0.000000,512.000000) scale(0.100000,-0.100000)"
fill="#000000" stroke="none">
<path d="M1288 4646 c-153 -39 -284 -78 -292 -86 -20 -21 -146 -252 -146 -268
0 -18 5 -22 170 -151 80 -62 160 -124 179 -139 19 -15 38 -30 44 -33 11 -8 1
-29 -14 -29 -17 0 -189 -89 -258 -134 -128 -83 -252 -192 -371 -326 -48 -54
-167 -235 -207 -314 -83 -165 -140 -349 -169 -546 -10 -68 -11 -318 -2 -380 5
-30 11 -71 13 -90 10 -64 45 -201 71 -278 134 -390 423 -724 794 -919 126 -66
307 -133 396 -148 22 -3 55 -10 74 -15 103 -26 354 -33 493 -14 126 18 119 19
179 -29 180 -148 437 -266 687 -317 237 -48 461 -45 701 11 255 59 499 182
700 355 173 148 336 361 417 544 53 119 76 175 74 184 0 3 7 25 15 48 16 45
29 98 39 158 3 19 8 42 10 50 10 36 19 163 19 265 0 102 -11 251 -19 265 -2 3
-6 26 -9 50 -6 56 -49 204 -83 290 -153 386 -438 695 -808 876 -157 76 -292
123 -410 140 -16 3 -36 7 -44 10 -73 25 -499 23 -565 -2 -10 -4 -39 12 -78 43
-178 140 -379 240 -594 296 -176 46 -264 56 -460 53 l-162 -2 18 41 c9 22 26
60 38 85 46 101 105 239 127 297 l25 62 -43 29 c-110 76 -227 142 -249 141
-12 -1 -148 -34 -300 -73z m267 -16 c25 -40 -5 -87 -48 -76 -35 8 -77 45 -71
61 9 22 107 34 119 15z m151 -31 c54 -33 38 -70 -31 -72 -56 -2 -79 47 -37 81
21 16 29 15 68 -9z m-268 -73 c23 -14 42 -32 42 -40 0 -11 -101 -45 -142 -47
-4 -1 -28 -7 -54 -15 -74 -22 -83 -3 -33 72 53 77 100 85 187 30z m-233 24 c8
-12 -17 -60 -44 -84 -41 -37 -92 15 -62 62 5 8 24 18 42 22 48 11 57 11 64 0z
m569 -88 c4 -11 -5 -45 -20 -78 -14 -32 -32 -74 -40 -91 -103 -238 -115 -260
-135 -247 -4 2 -6 17 -4 32 2 15 6 63 9 107 17 213 19 221 58 259 38 36 123
48 132 18z m-721 -22 c24 -35 10 -68 -34 -81 -30 -9 -42 -9 -53 0 -14 12 -13
17 4 51 27 53 59 65 83 30z m483 -45 c10 -15 14 -35 10 -52 -3 -15 -8 -73 -12
-128 -4 -55 -8 -107 -10 -115 -1 -8 -3 -27 -3 -42 -1 -23 -6 -28 -51 -37 -28
-6 -55 -11 -61 -11 -11 0 -175 249 -190 288 -15 39 7 53 139 88 146 40 158 40
178 9z m-400 -104 c17 -11 56 -57 85 -102 30 -46 71 -108 91 -139 35 -53 39
-70 15 -70 -10 0 -265 192 -339 255 -32 27 -19 48 42 68 33 11 77 6 106 -12z
m969 -535 c44 -9 90 -18 103 -21 74 -14 361 -140 377 -164 3 -6 -29 -28 -73
-50 -79 -40 -242 -144 -297 -191 -87 -74 -205 -196 -271 -282 -41 -53 -74
-100 -74 -104 0 -4 -6 -15 -14 -23 -24 -27 -93 -163 -131 -257 -112 -277 -149
-633 -95 -904 7 -30 14 -68 17 -85 11 -66 83 -266 128 -355 26 -52 71 -132
101 -177 29 -45 50 -84 46 -86 -11 -5 -130 -1 -202 7 -305 34 -608 181 -825
401 -130 132 -269 362 -324 535 -63 200 -81 457 -45 643 55 291 175 526 369
721 108 109 124 123 229 191 136 88 336 173 455 191 20 3 38 7 41 9 3 2 37 6
75 10 39 4 72 9 73 10 10 9 268 -6 337 -19z m1252 -321 c57 -3 108 -7 115 -10
7 -2 29 -6 48 -9 52 -8 203 -53 273 -82 162 -67 316 -172 447 -304 218 -219
339 -458 394 -775 14 -77 15 -347 3 -405 -3 -14 -8 -41 -11 -60 -3 -19 -16
-73 -30 -120 -114 -407 -400 -733 -788 -901 -408 -177 -895 -145 -1271 84
l-49 30 34 15 c269 121 465 273 657 512 33 41 61 80 61 87 0 6 4 13 8 15 7 3
31 41 85 139 45 79 108 248 137 363 37 147 51 258 51 399 0 107 -7 186 -27
297 -17 96 -62 260 -75 274 -5 6 -9 18 -9 27 0 28 -123 261 -183 347 l-57 81
33 3 c17 2 37 2 42 1 6 -1 56 -4 112 -8z m-366 -252 c114 -165 192 -366 224
-578 11 -73 13 -287 3 -361 -7 -51 -39 -186 -61 -259 -37 -123 -93 -227 -224
-415 -56 -81 -248 -250 -363 -319 -93 -56 -295 -141 -335 -141 -30 0 -172 202
-236 337 -94 198 -133 377 -133 603 0 183 23 318 81 475 140 377 420 665 792
815 l94 38 54 -61 c29 -34 76 -94 104 -134z"/>
</g>
</svg>
